<svg width="100" height="100" viewBox="0 0 100 100" fill="none" xmlns="http://www.w3.org/2000/svg">
<path d="M100 50C100 77.6142 77.6142 100 50 100C22.3858 100 0 77.6142 0 50C0 22.3858 22.3858 0 50 0C77.6142 0 100 22.3858 100 50Z" fill="url(#paint0_radial_54_80)"/>
<path d="M42.6899 50C44.5686 50 46.3851 49.1691 47.807 47.661C49.1895 46.1901 50.0338 44.2286 50.1828 42.1395C50.3417 39.9109 49.6555 37.8616 48.251 36.3681C46.8466 34.8746 44.8829 34.069 42.6899 34.069C40.5124 34.069 38.5432 34.889 37.1433 36.379C35.7297 37.8834 35.0417 39.9291 35.2006 42.1386C35.3532 44.2304 36.1967 46.191 37.5764 47.6601C38.9946 49.1691 40.8103 50 42.6899 50ZM30.6437 65.931H54.7351C55.1225 65.9331 55.5051 65.8471 55.8536 65.6796C56.2021 65.5122 56.5072 65.2678 56.7454 64.9652C56.9981 64.6372 57.1725 64.2568 57.2558 63.8526C57.339 63.4483 57.3289 63.0306 57.2261 62.6308C56.4567 59.5704 54.5506 57.0323 51.7142 55.2916C49.1968 53.7474 45.9922 52.8965 42.6899 52.8965C39.3226 52.8965 36.2021 53.7112 33.6701 55.2545C30.8274 56.9861 28.9185 59.5387 28.1528 62.6362C28.0512 63.0363 28.0422 63.454 28.1264 63.8581C28.2105 64.2621 28.3857 64.6421 28.6389 64.9697C28.8768 65.2709 29.1812 65.5141 29.5287 65.6808C29.8762 65.8474 30.2576 65.933 30.6437 65.931ZM59.96 50.3621C63.1756 50.3621 66.0028 47.4003 66.265 43.7606C66.3948 41.896 65.8082 40.1716 64.6203 38.9071C63.4452 37.6553 61.7876 36.9655 59.96 36.9655C58.1325 36.9655 56.4877 37.6589 55.3062 38.918C54.1092 40.1925 53.5244 41.9132 53.6615 43.7625C53.9237 47.4012 56.75 50.3621 59.96 50.3621ZM53.9603 53.2088C55.5676 52.4304 57.6537 52.0412 59.9591 52.0412C62.6511 52.0412 65.2654 52.7363 67.3213 53.9981C69.6524 55.431 71.2204 57.5175 71.8536 60.0366C71.9463 60.3989 71.9551 60.7773 71.8793 61.1435C71.8035 61.5096 71.6451 61.8541 71.4159 62.151C71.1985 62.4275 70.92 62.651 70.6017 62.8041C70.2835 62.9573 69.934 63.0361 69.5802 63.0345H59.4374C59.2662 63.0345 59.1004 62.9749 58.969 62.8662C58.8376 62.7576 58.7488 62.6066 58.7182 62.4398C58.7082 62.3828 58.6954 62.3257 58.6808 62.2696C57.9059 59.1866 56.0902 56.5815 53.4074 54.6825C53.3088 54.612 53.2294 54.5183 53.1765 54.4097C53.1237 54.3012 53.099 54.1814 53.1047 54.061C53.1104 53.9406 53.1463 53.8236 53.2093 53.7205C53.2722 53.6173 53.3601 53.5314 53.465 53.4704C53.6085 53.3872 53.7729 53.2994 53.9603 53.2088Z" fill="#CD803D"/>
<defs>
<radialGradient id="paint0_radial_54_80" cx="0" cy="0" r="1" gradientUnits="userSpaceOnUse" gradientTransform="translate(33.0688 34.9206) rotate(49.3795) scale(85.7392)">
<stop offset="0.00863338" stop-color="#FFE2C9"/>
<stop offset="0.630493" stop-color="#FF902D"/>
<stop offset="0.852392" stop-color="#F29B4E"/>
<stop offset="1" stop-color="#FFC188"/>
</radialGradient>
</defs>
</svg>
