<svg width="100" height="100" viewBox="0 0 100 100" fill="none" xmlns="http://www.w3.org/2000/svg">
<path d="M100 50C100 77.6142 77.6142 100 50 100C22.3858 100 0 77.6142 0 50C0 22.3858 22.3858 0 50 0C77.6142 0 100 22.3858 100 50Z" fill="url(#paint0_radial_54_79)"/>
<path d="M36 60.5C35.0375 60.5 34.2138 60.1576 33.529 59.4728C32.843 58.7868 32.5 57.9625 32.5 57V37.75C32.5 36.7875 32.843 35.9632 33.529 35.2772C34.2138 34.5924 35.0375 34.25 36 34.25H64C64.9625 34.25 65.7867 34.5924 66.4727 35.2772C67.1576 35.9632 67.5 36.7875 67.5 37.75V57C67.5 57.9625 67.1576 58.7868 66.4727 59.4728C65.7867 60.1576 64.9625 60.5 64 60.5H36ZM32.5 65.75C32.0042 65.75 31.5888 65.582 31.254 65.246C30.918 64.9112 30.75 64.4958 30.75 64C30.75 63.5042 30.918 63.0888 31.254 62.754C31.5888 62.418 32.0042 62.25 32.5 62.25H67.5C67.9958 62.25 68.4112 62.418 68.746 62.754C69.082 63.0888 69.25 63.5042 69.25 64C69.25 64.4958 69.082 64.9112 68.746 65.246C68.4112 65.582 67.9958 65.75 67.5 65.75H32.5Z" fill="#D1CC55"/>
<defs>
<radialGradient id="paint0_radial_54_79" cx="0" cy="0" r="1" gradientUnits="userSpaceOnUse" gradientTransform="translate(33.0688 34.9206) rotate(49.3795) scale(85.7392)">
<stop offset="0.00863338" stop-color="#FFFFF4"/>
<stop offset="0.414887" stop-color="#F7F28E"/>
<stop offset="0.685723" stop-color="#EBE556"/>
<stop offset="1" stop-color="#FFF620"/>
</radialGradient>
</defs>
</svg>
