<svg width="100" height="100" viewBox="0 0 100 100" fill="none" xmlns="http://www.w3.org/2000/svg">
<path d="M100 50C100 77.6142 77.6142 100 50 100C22.3858 100 0 77.6142 0 50C0 22.3858 22.3858 0 50 0C77.6142 0 100 22.3858 100 50Z" fill="url(#paint0_radial_54_76)"/>
<path fill-rule="evenodd" clip-rule="evenodd" d="M48.0478 31.1437C48.5604 30.7338 49.189 30.4957 49.8445 30.4632C50.5 30.4307 51.1492 30.6053 51.6998 30.9625L51.9519 31.1437L60.9353 38.3312C61.3736 38.6815 61.7366 39.1168 62.0026 39.6108C62.2686 40.1048 62.432 40.6475 62.4832 41.2062L62.4998 41.5833V65.5833H64.5832V47.875C64.5831 47.6312 64.6685 47.3951 64.8246 47.2078C64.9807 47.0205 65.1975 46.8939 65.4373 46.85L65.6248 46.8333H66.6665C67.7177 46.833 68.7302 47.23 69.501 47.9448C70.2718 48.6595 70.7439 49.6392 70.8228 50.6875L70.8332 51V67.4583C70.833 68.0227 70.6245 68.5671 70.2478 68.9873C69.871 69.4074 69.3525 69.6738 68.7915 69.7354L68.5415 69.75H31.4582C30.8935 69.7503 30.3485 69.542 29.9279 69.1653C29.5073 68.7885 29.2406 68.2696 29.179 67.7083L29.1665 67.4583V51C29.1662 49.9488 29.5632 48.9363 30.278 48.1655C30.9927 47.3947 31.9724 46.9226 33.0207 46.8437L33.3332 46.8333H34.3748C34.6186 46.8332 34.8548 46.9187 35.042 47.0747C35.2293 47.2308 35.356 47.4477 35.3998 47.6875L35.4165 47.875V65.5833H37.4998V41.5833C37.4998 41.0222 37.6131 40.4669 37.8329 39.9507C38.0527 39.4345 38.3745 38.968 38.779 38.5791L39.0644 38.3291L48.0478 31.1416V31.1437ZM49.9998 44.7479C48.8948 44.7479 47.835 45.1869 47.0536 45.9683C46.2722 46.7497 45.8332 47.8095 45.8332 48.9146C45.8332 50.0196 46.2722 51.0794 47.0536 51.8608C47.835 52.6422 48.8948 53.0812 49.9998 53.0812C51.1049 53.0812 52.1647 52.6422 52.9461 51.8608C53.7275 51.0794 54.1665 50.0196 54.1665 48.9146C54.1665 47.8095 53.7275 46.7497 52.9461 45.9683C52.1647 45.1869 51.1049 44.7479 49.9998 44.7479Z" fill="#84996F"/>
<defs>
<radialGradient id="paint0_radial_54_76" cx="0" cy="0" r="1" gradientUnits="userSpaceOnUse" gradientTransform="translate(33.0688 34.9206) rotate(49.3795) scale(85.7392)">
<stop offset="0.00863338" stop-color="#E7FFC9"/>
<stop offset="0.18051" stop-color="#DAF9B7"/>
<stop offset="0.630493" stop-color="#B9EB86"/>
<stop offset="0.852392" stop-color="#A9E062"/>
<stop offset="1" stop-color="#E1FFCF"/>
</radialGradient>
</defs>
</svg>
